# xmcd CD database file
#
# Track frame offsets:
#	150
#	19614
#	33858
#	53298
#	74047
#	102166
#	119531
#	143729
#	165591
#	185851
#	201790
#	227256
#	245273
#
# Disc length: 3526 seconds
#
# Revision: 1
# Processed by: cddbd v1.5.2PL0 Copyright (c) Steve Scherf et al.
# Submitted via: CDex 1.51
#
DISCID=a70dc40d
DTITLE=Charles Walker - Number By Heart
DYEAR=2003
DGENRE=Soul
TTITLE0=Number By Heart
TTITLE1=Your Time To Cry
TTITLE2=One Man's Poison
TTITLE3=I Just Want To Love Somebody
TTITLE4=Love And Tenderness
TTITLE5=Snake Juice
TTITLE6=We Got A Secret
TTITLE7=Ain't Gonna Beg
TTITLE8=Give Me Your Hand
TTITLE9=Allison
TTITLE10=A Fool's Advice
TTITLE11=At The End Of The Day
TTITLE12=It Tears Me Up
EXTD=YEAR: 2003
EXTT0=
EXTT1=
EXTT2=
EXTT3=
EXTT4=
EXTT5=
EXTT6=
EXTT7=
EXTT8=
EXTT9=
EXTT10=
EXTT11=
EXTT12=
PLAYORDER=
